<svg width="148" height="60" viewBox="0 0 148 60" fill="none" xmlns="http://www.w3.org/2000/svg">
<path d="M18.746 14.6C21.37 12.808 23.162 11.72 24.122 11.336C25.082 10.92 26.202 10.712 27.482 10.712C28.794 10.712 29.802 11.16 30.506 12.056C31.21 12.952 31.562 14.232 31.562 15.896C31.562 18.872 30.602 22.072 28.682 25.496C26.762 28.92 24.362 31.8 21.482 34.136C18.602 36.44 15.882 37.592 13.322 37.592C12.682 37.592 11.946 37.56 11.114 37.496C9.54597 40.824 8.12197 43.336 6.84197 45.032C5.56197 46.728 4.28197 47.576 3.00197 47.576C2.20197 47.576 1.57797 47.288 1.12997 46.712C0.681969 46.136 0.457969 45.336 0.457969 44.312C0.457969 41.016 1.97797 36.616 5.01797 31.112C8.05797 25.576 11.402 21.144 15.05 17.816C15.562 15.704 15.818 14.168 15.818 13.208C15.818 12.216 15.786 11.464 15.722 10.952L19.178 10.376C19.178 10.6 19.034 12.008 18.746 14.6ZM7.75397 34.04L9.09797 34.712C11.114 30.776 12.81 26.36 14.186 21.464C11.242 25.144 8.82597 28.888 6.93797 32.696C5.04997 36.504 4.10597 39.432 4.10597 41.48C4.10597 42.088 4.29797 42.392 4.68197 42.392C4.96997 42.392 5.48197 41.8 6.21797 40.616C6.95397 39.4 7.57797 38.168 8.08997 36.92C7.67397 36.728 7.27397 36.44 6.88997 36.056L7.75397 34.04ZM12.122 35.384L13.034 35.432C16.138 35.432 19.05 33.8 21.77 30.536C23.306 28.648 24.602 26.488 25.658 24.056C26.746 21.624 27.29 19.56 27.29 17.864C27.29 16.936 27.034 16.2 26.522 15.656C26.042 15.112 25.37 14.84 24.506 14.84C22.938 14.84 20.858 15.704 18.266 17.432C17.69 21.752 15.642 27.736 12.122 35.384ZM46.49 36.152L47.594 36.968C47.146 37.928 46.314 38.84 45.098 39.704C43.914 40.568 42.826 41 41.834 41C39.946 41 39.002 40.008 39.002 38.024C39.002 37.096 39.242 35.992 39.722 34.712L37.946 36.536C36.218 38.296 34.714 39.48 33.434 40.088C32.186 40.696 30.954 41 29.738 41C28.522 41 27.594 40.664 26.954 39.992C26.346 39.288 26.042 38.328 26.042 37.112C26.042 34.872 26.906 32.664 28.634 30.488C30.362 28.28 32.57 26.488 35.258 25.112C37.946 23.736 40.634 23.032 43.322 23L43.418 24.584L41.402 25.016C38.49 25.656 35.914 26.936 33.674 28.856C31.466 30.776 30.362 32.696 30.362 34.616C30.362 36.504 31.13 37.448 32.666 37.448C34.106 37.448 35.882 36.44 37.994 34.424C40.106 32.408 41.866 30.04 43.274 27.32L45.29 28.52C43.306 32.52 42.314 35.064 42.314 36.152C42.314 36.6 42.458 36.984 42.746 37.304C43.066 37.592 43.37 37.736 43.658 37.736C43.978 37.736 44.186 37.72 44.282 37.688C44.378 37.656 44.474 37.624 44.57 37.592C44.666 37.528 44.778 37.448 44.906 37.352C45.066 37.256 45.194 37.16 45.29 37.064C45.418 36.968 45.61 36.824 45.866 36.632C46.122 36.44 46.33 36.28 46.49 36.152Z" fill="#7D26CD"/>
<path d="M52.032 25.87C52.8706 25.2127 53.766 24.7253 54.718 24.408C55.67 24.0907 56.826 23.932 58.186 23.932C59.546 23.932 60.736 24.238 61.756 24.85C62.7986 25.462 63.32 26.1193 63.32 26.822C63.32 27.6833 62.8326 28.1707 61.858 28.284C61.6313 27.7853 61.1213 27.332 60.328 26.924C59.5346 26.4933 58.594 26.278 57.506 26.278C55.9873 26.278 54.7293 26.822 53.732 27.91C52.7346 28.9753 52.236 30.5393 52.236 32.602C52.236 34.6647 52.746 36.24 53.766 37.328C54.786 38.416 56.01 38.96 57.438 38.96C59.7046 38.96 61.2346 38.2233 62.028 36.75C62.4586 36.75 62.8213 36.886 63.116 37.158C63.4106 37.4073 63.558 37.736 63.558 38.144C63.558 38.9373 63.014 39.6627 61.926 40.32C60.838 40.9547 59.5913 41.272 58.186 41.272C56.8033 41.272 55.6246 41.1133 54.65 40.796C53.698 40.456 52.814 39.9573 51.998 39.3C51.182 38.62 50.536 37.7133 50.06 36.58C49.584 35.4467 49.346 34.132 49.346 32.636C49.346 31.1173 49.584 29.78 50.06 28.624C50.5586 27.4453 51.216 26.5273 52.032 25.87ZM68.526 17.166H68.764C69.6253 17.166 70.056 17.5967 70.056 18.458V27.638C70.4413 26.6407 71.0986 25.7907 72.028 25.088C72.9573 24.3853 74.0453 24.034 75.292 24.034C77.196 24.034 78.7146 24.578 79.848 25.666C80.9813 26.7313 81.548 28.4653 81.548 30.868V39.708C81.548 40.1613 81.446 40.49 81.242 40.694C81.038 40.898 80.7093 41 80.256 41H79.984C79.1453 41 78.726 40.5693 78.726 39.708V31.038C78.726 27.8873 77.366 26.312 74.646 26.312C73.218 26.312 72.096 26.9013 71.28 28.08C70.4866 29.2587 70.09 30.7433 70.09 32.534V39.708C70.09 40.5693 69.648 41 68.764 41H68.526C68.0726 41 67.744 40.898 67.54 40.694C67.336 40.49 67.234 40.1613 67.234 39.708V18.458C67.234 17.5967 67.6646 17.166 68.526 17.166ZM92.3754 23.966C97.1807 23.966 99.5834 26.1987 99.5834 30.664V37.396C99.5834 38.6427 100.059 39.436 101.011 39.776C100.671 40.6373 100.037 41.068 99.1074 41.068C98.4274 41.068 97.8834 40.83 97.4754 40.354C97.09 39.8553 96.8974 39.2093 96.8974 38.416C95.4694 40.32 93.622 41.272 91.3554 41.272C89.5194 41.272 88.0687 40.8073 87.0034 39.878C85.9607 38.926 85.4394 37.6567 85.4394 36.07C85.4394 34.4607 86.0514 33.1573 87.2754 32.16C88.522 31.1627 90.1994 30.664 92.3074 30.664C93.5767 30.664 94.642 30.8 95.5034 31.072C96.206 31.3213 96.6254 31.48 96.7614 31.548V30.052C96.7614 28.6693 96.41 27.6947 95.7074 27.128C95.0047 26.5387 93.9394 26.244 92.5114 26.244C90.494 26.244 88.93 27.0147 87.8194 28.556C86.8674 28.42 86.3914 27.978 86.3914 27.23C86.3914 26.3687 86.9807 25.6093 88.1594 24.952C89.338 24.2947 90.7434 23.966 92.3754 23.966ZM96.7614 33.724C95.3334 33.0893 93.928 32.772 92.5454 32.772C91.1627 32.772 90.0974 33.0667 89.3494 33.656C88.6014 34.2453 88.2274 35.016 88.2274 35.968C88.2274 36.8973 88.5447 37.6453 89.1794 38.212C89.8367 38.756 90.7887 39.028 92.0354 39.028C93.3047 39.028 94.404 38.5747 95.3334 37.668C96.2854 36.7613 96.7614 35.662 96.7614 34.37V33.724ZM105.879 24.238H106.083C106.945 24.238 107.375 24.6573 107.375 25.496V27.332C107.761 26.4707 108.373 25.7 109.211 25.02C110.073 24.34 110.991 24 111.965 24C112.94 24 113.677 24.1927 114.175 24.578C114.697 24.9633 114.957 25.4393 114.957 26.006C114.957 26.55 114.719 26.9807 114.243 27.298C113.541 26.7087 112.793 26.414 111.999 26.414C110.594 26.414 109.483 26.992 108.667 28.148C107.851 29.2813 107.443 30.7093 107.443 32.432V39.708C107.443 40.1613 107.341 40.49 107.137 40.694C106.933 40.898 106.605 41 106.151 41H105.879C105.426 41 105.097 40.898 104.893 40.694C104.689 40.49 104.587 40.1613 104.587 39.708V25.496C104.587 24.6573 105.018 24.238 105.879 24.238ZM123.852 23.966C128.657 23.966 131.06 26.1987 131.06 30.664V37.396C131.06 38.6427 131.536 39.436 132.488 39.776C132.148 40.6373 131.513 41.068 130.584 41.068C129.904 41.068 129.36 40.83 128.952 40.354C128.567 39.8553 128.374 39.2093 128.374 38.416C126.946 40.32 125.099 41.272 122.832 41.272C120.996 41.272 119.545 40.8073 118.48 39.878C117.437 38.926 116.916 37.6567 116.916 36.07C116.916 34.4607 117.528 33.1573 118.752 32.16C119.999 31.1627 121.676 30.664 123.784 30.664C125.053 30.664 126.119 30.8 126.98 31.072C127.683 31.3213 128.102 31.48 128.238 31.548V30.052C128.238 28.6693 127.887 27.6947 127.184 27.128C126.481 26.5387 125.416 26.244 123.988 26.244C121.971 26.244 120.407 27.0147 119.296 28.556C118.344 28.42 117.868 27.978 117.868 27.23C117.868 26.3687 118.457 25.6093 119.636 24.952C120.815 24.2947 122.22 23.966 123.852 23.966ZM128.238 33.724C126.81 33.0893 125.405 32.772 124.022 32.772C122.639 32.772 121.574 33.0667 120.826 33.656C120.078 34.2453 119.704 35.016 119.704 35.968C119.704 36.8973 120.021 37.6453 120.656 38.212C121.313 38.756 122.265 39.028 123.512 39.028C124.781 39.028 125.881 38.5747 126.81 37.668C127.762 36.7613 128.238 35.662 128.238 34.37V33.724Z" fill="#333333"/>
<circle cx="143" cy="42" r="5" fill="#FFC107"/>
</svg>
