<svg width="31" height="31" viewBox="0 0 31 31" fill="none" xmlns="http://www.w3.org/2000/svg">
<path d="M12.8353 20.0208C12.72 19.5738 12.487 19.1659 12.1605 18.8394C11.8341 18.513 11.4262 18.28 10.9792 18.1647L3.05479 16.1213C2.91959 16.0829 2.8006 16.0015 2.71587 15.8894C2.63114 15.7772 2.5853 15.6405 2.5853 15.5C2.5853 15.3595 2.63114 15.2228 2.71587 15.1106C2.8006 14.9985 2.91959 14.9171 3.05479 14.8787L10.9792 12.834C11.426 12.7188 11.8338 12.486 12.1603 12.1598C12.4867 11.8336 12.7198 11.4259 12.8353 10.9792L14.8787 3.05479C14.9167 2.91906 14.998 2.79948 15.1103 2.7143C15.2226 2.62912 15.3597 2.58301 15.5006 2.58301C15.6416 2.58301 15.7787 2.62912 15.891 2.7143C16.0032 2.79948 16.0846 2.91906 16.1226 3.05479L18.1647 10.9792C18.28 11.4262 18.513 11.8341 18.8394 12.1605C19.1659 12.487 19.5738 12.72 20.0208 12.8353L27.9452 14.8774C28.0815 14.915 28.2016 14.9963 28.2873 15.1087C28.3729 15.2212 28.4193 15.3586 28.4193 15.5C28.4193 15.6414 28.3729 15.7788 28.2873 15.8913C28.2016 16.0037 28.0815 16.085 27.9452 16.1226L20.0208 18.1647C19.5738 18.28 19.1659 18.513 18.8394 18.8394C18.513 19.1659 18.28 19.5738 18.1647 20.0208L16.1213 27.9452C16.0833 28.0809 16.002 28.2005 15.8897 28.2857C15.7774 28.3709 15.6403 28.417 15.4993 28.417C15.3584 28.417 15.2213 28.3709 15.109 28.2857C14.9967 28.2005 14.9154 28.0809 14.8774 27.9452L12.8353 20.0208Z" stroke="#333333" stroke-width="2" stroke-linecap="round" stroke-linejoin="round"/>
</svg>
